<svg width="30" height="30" viewBox="0 0 30 30" fill="none" xmlns="http://www.w3.org/2000/svg">
<rect x="0.5" y="0.5" width="29" height="29" rx="6.5" fill="#667085" stroke="#667085"/>
<path d="M17.3711 9.5H17.3721C17.7951 9.49903 18.2151 9.57068 18.6123 9.71191L18.7812 9.77734C19.1578 9.93191 19.5052 10.148 19.8086 10.416L19.9355 10.5342C20.2253 10.8154 20.4646 11.1431 20.6426 11.5029L20.7148 11.6592C20.8809 12.0424 20.9759 12.445 20.9961 12.8594L21 13.0381V13.0391C21 13.4305 20.9293 13.8447 20.7832 14.2754L20.7158 14.4609V14.4619C20.5967 14.7733 20.4345 15.0995 20.2314 15.4346L20.0156 15.7715C19.5306 16.4889 18.8542 17.2506 18 18.0332C16.9345 19.0085 15.8762 19.7578 15.3926 20.085L15.1211 20.2646L14.751 20.5H14.749L14.3789 20.2646L14.3711 20.2598L14.3525 20.248C14.3397 20.2398 14.3217 20.2278 14.2988 20.2129C14.2532 20.1831 14.1881 20.1404 14.1074 20.0859C13.9461 19.9769 13.7204 19.821 13.4521 19.625C13.0489 19.3304 12.5507 18.9476 12.0283 18.501L11.501 18.0342C10.6465 17.2514 9.96949 16.4891 9.48438 15.7715H9.4834C9.17775 15.3186 8.94399 14.8774 8.7832 14.4609H8.78418C8.59245 13.9635 8.5 13.4864 8.5 13.0391C8.50001 12.6202 8.5738 12.2123 8.71973 11.8232L8.78711 11.6582C8.94705 11.2895 9.16924 10.9509 9.44434 10.6572L9.56543 10.5342C9.8577 10.2501 10.1923 10.0197 10.5605 9.84766L10.7197 9.77734H10.7207C11.1672 9.59334 11.6397 9.50004 12.1299 9.5C12.7247 9.5 13.3062 9.64173 13.8271 9.91016L14.0469 10.0322C14.1843 10.1154 14.3144 10.2066 14.4375 10.3057L14.751 10.5586L15.0645 10.3057C15.1259 10.2562 15.1889 10.2086 15.2539 10.1631L15.4551 10.0322C15.9577 9.728 16.5274 9.54892 17.1172 9.50879L17.3711 9.5Z" stroke="#ECECEC"/>
</svg>
