<svg width="32" height="32" viewBox="0 0 32 32" fill="none" xmlns="http://www.w3.org/2000/svg">
<rect x="0.5" y="0.5" width="31" height="31" rx="6.5" fill="white" stroke="#F8F8F8"/>
<path d="M18.5294 10.3002H18.5314C18.9633 10.2992 19.3915 10.3728 19.797 10.517L19.9698 10.5834H19.9708C20.355 10.7411 20.7092 10.9614 21.0187 11.2347L21.1486 11.3558C21.4856 11.6829 21.7556 12.0717 21.9425 12.5004V12.5013C22.112 12.8922 22.2091 13.3027 22.2296 13.725L22.2335 13.9066V13.9086C22.2335 14.3058 22.1614 14.7293 22.0109 15.1732L21.9415 15.3656V15.3666C21.8185 15.688 21.6496 16.0264 21.4376 16.3763L21.2111 16.7299C20.7663 17.3878 20.1663 18.0851 19.4171 18.8041L19.087 19.1127C17.9587 20.1455 16.8378 20.9394 16.3263 21.2855L16.0402 21.475L15.7325 21.6693L15.4269 21.475L15.4152 21.4681L15.3429 21.4213C15.295 21.39 15.2269 21.345 15.1417 21.2875C14.9711 21.1722 14.7319 21.007 14.4474 20.7992C14.0197 20.4868 13.4918 20.0808 12.9386 19.6078L12.38 19.1136V19.1127L12.0499 18.8041C11.4075 18.1876 10.8746 17.5873 10.4552 17.014L10.255 16.7299C10.0148 16.374 9.81783 16.0268 9.66418 15.6937L9.52454 15.3646C9.32661 14.8509 9.23354 14.3625 9.23352 13.9086C9.23352 13.4819 9.30854 13.0666 9.45715 12.6703L9.52551 12.5013C9.68843 12.1259 9.91516 11.7811 10.1954 11.4818L10.3185 11.3568L10.3195 11.3558C10.6179 11.0658 10.959 10.8303 11.3351 10.6547L11.4982 10.5834H11.4991C11.9549 10.3956 12.4372 10.3002 12.9386 10.3002C13.5466 10.3002 14.141 10.444 14.673 10.7181L14.8966 10.8441C15.0368 10.929 15.1697 11.0216 15.295 11.1224L15.7345 11.476L16.173 11.1224C16.2356 11.072 16.3 11.0234 16.3663 10.9769L16.5714 10.8441C17.0847 10.5334 17.6668 10.35 18.2697 10.309L18.5294 10.3002Z" stroke="#ECECEC" stroke-width="1.4"/>
</svg>
