<svg width="32" height="32" viewBox="0 0 32 32" fill="none" xmlns="http://www.w3.org/2000/svg">
<rect width="32" height="32" rx="8" fill="#667085"/>
<g filter="url(#filter0_d_60_200)">
<path d="M20.7962 10.3758C21.0358 10.1376 21.3615 10.0025 21.702 10C22.0425 9.99756 22.3702 10.1279 22.6134 10.3626C22.8566 10.5973 22.9955 10.9173 22.9999 11.2526C23.0043 11.5879 22.8736 11.9113 22.6366 12.152L15.7786 20.5946C15.6608 20.7196 15.5186 20.8198 15.3606 20.8894C15.2026 20.959 15.0319 20.9966 14.8588 20.9998C14.6857 21.003 14.5138 20.9718 14.3532 20.9081C14.1926 20.8445 14.0467 20.7496 13.9242 20.6291L9.37724 16.1533C9.13562 15.9152 8.99992 15.5924 9 15.2558C9.00008 14.9192 9.13594 14.5965 9.37768 14.3585C9.61942 14.1206 9.94724 13.987 10.289 13.987C10.6308 13.9871 10.9586 14.1209 11.2002 14.3589L14.7963 17.901L20.7621 10.4154C20.7729 10.4018 20.7846 10.3889 20.797 10.3767L20.7962 10.3758Z" fill="#3CC755"/>
</g>
<defs>
<filter id="filter0_d_60_200" x="9" y="10" width="14" height="13" filterUnits="userSpaceOnUse" color-interpolation-filters="sRGB">
<feFlood flood-opacity="0" result="BackgroundImageFix"/>
<feColorMatrix in="SourceAlpha" type="matrix" values="0 0 0 0 0 0 0 0 0 0 0 0 0 0 0 0 0 0 127 0" result="hardAlpha"/>
<feOffset dy="2"/>
<feColorMatrix type="matrix" values="0 0 0 0 0 0 0 0 0 0 0 0 0 0 0 0 0 0 0.1 0"/>
<feBlend mode="normal" in2="BackgroundImageFix" result="effect1_dropShadow_60_200"/>
<feBlend mode="normal" in="SourceGraphic" in2="effect1_dropShadow_60_200" result="shape"/>
</filter>
</defs>
</svg>
